<svg xmlns="http://www.w3.org/2000/svg" viewBox="0 0 200 200" fill="#000"><path d="M100 45.708984s-48.543892-.00027-60.679688 3.19336c-6.515006 1.788433-11.879535 7.154123-13.667968 13.796875-3.19363 12.135795-3.19336 37.300781-3.19336 37.300781s-.00027 25.29273 3.19336 37.30078c1.788433 6.64275 7.025216 11.88149 13.667968 13.66992C51.583853 154.292079 100 154.291019 100 154.291019s48.54193.00027 60.67773-3.19336c6.64276-1.78844 11.88149-7.02522 13.66993-13.66797 3.19362-12.1358 3.19336-37.30274 3.19336-37.30274s.12801-25.291936-3.19336-37.427731c-1.78844-6.642752-7.02717-11.881489-13.66993-13.669922C148.541929 45.707922 100 45.708984 100 45.708984zM84.542969 76.75l40.367191 23.25-40.367191 23.25v-46.5z"/></svg>