<svg xmlns="http://www.w3.org/2000/svg" viewBox="0 0 200 200" fill="#fff"><path d="M172.463 57.524a28.34 28.34 0 01-15.744 4.723 28.34 28.34 0 0012.595-15.744 28.34 28.34 0 01-17.712 6.691 28.34 28.34 0 00-48.02 25.585 78.722 78.722 0 01-57.073-29.127 28.34 28.34 0 008.659 36.999 28.34 28.34 0 01-12.595-2.755 28.34 28.34 0 0022.042 27.159 28.34 28.34 0 01-12.595.394 28.34 28.34 0 0026.372 19.68 78.722 78.722 0 01-41.329 11.415 78.722 78.722 0 00121.625-70.456 78.722 78.722 0 0013.776-14.564"/></svg>